# Blender 4.3.2
# www.blender.org
mtllib one_cube_one_axis.mtl
o Cube
v 1.000000 -1.000000 1.000000
v 1.000000 1.000000 1.000000
v 1.000000 -1.000000 -1.000000
v 1.000000 1.000000 -1.000000
v -1.000000 -1.000000 1.000000
v -1.000000 1.000000 1.000000
v -1.000000 -1.000000 -1.000000
v -1.000000 1.000000 -1.000000
vn -0.0000 -1.0000 -0.0000
vn -0.0000 -0.0000 -1.0000
vn -1.0000 -0.0000 -0.0000
vn -0.0000 1.0000 -0.0000
vn 1.0000 -0.0000 -0.0000
vn -0.0000 -0.0000 1.0000
vt 0.665405 0.500200
vt 0.997322 0.500200
vt 0.997322 0.749354
vt 0.665405 0.749354
vt 0.334433 0.749354
vt 0.665405 0.998041
vt 0.334433 0.998041
vt 0.334433 0.002178
vt 0.665405 0.002178
vt 0.665405 0.250943
vt 0.334433 0.250943
vt 0.003281 0.500200
vt 0.334433 0.500200
vt 0.003281 0.749354
s 0
usemtl Material.001
f 1/1/1 5/2/1 7/3/1 3/4/1
f 4/5/2 3/4/2 7/6/2 8/7/2
f 8/8/3 7/9/3 5/10/3 6/11/3
f 6/12/4 2/13/4 4/5/4 8/14/4
f 2/13/5 1/1/5 3/4/5 4/5/5
f 6/11/6 5/10/6 1/1/6 2/13/6
